# xmcd
#
# Track frame offsets:
#	150
#	20368
#	38348
#	54536
#	69606
#	87076
#	100950
#	113989
#	132445
#	145929
#	163683
#	179256
#	192160
#	207886
#	225595
#	245282
#	261325
#	278606
#	302877
#
# Disc length: 4286 seconds
#
# Revision: 1
# Processed by: cddbd v1.5.1PL0 Copyright (c) Steve Scherf et al.
# Submitted via: EasyCDDAExtractor 6.2.0.3
#
DISCID=0610bc13
DTITLE=Various Artist - Originaal Plaat
DYEAR=1997
DGENRE=Country
TTITLE0=Viiulimees
TTITLE1=Tule Tuul
TTITLE2=Suult Suule
TTITLE3=Eesel
TTITLE4=Jõuluõhtu 1941
TTITLE5=Beergrass - Mõeldes Kungla Rahvale
TTITLE6=Elumees
TTITLE7=Päipäeva
TTITLE8=Sleepy Hollow Real
TTITLE9=Unetu Öö
TTITLE10=The Devil Went Down To Georgia
TTITLE11=Õhtul Cuccli Juures
TTITLE12=Company Time
TTITLE13=Kogu Maailm Lai
TTITLE14=No Frontiers
TTITLE15=Laupäeva Õhtul
TTITLE16=Sulle Vaid
TTITLE17=Restless
TTITLE18=Ootus
EXTD=
EXTT0=
EXTT1=
EXTT2=
EXTT3=
EXTT4=
EXTT5=
EXTT6=
EXTT7=
EXTT8=
EXTT9=
EXTT10=
EXTT11=
EXTT12=
EXTT13=
EXTT14=
EXTT15=
EXTT16=
EXTT17=
EXTT18=
PLAYORDER=
